<svg width="16" height="16" viewBox="0 0 16 16" fill="none" xmlns="http://www.w3.org/2000/svg">
<g id="Frame" clip-path="url(#clip0_1_412)">
<path id="Vector" fill-rule="evenodd" clip-rule="evenodd" d="M9.56123 12.8745L8.8603 12.1736C8.69055 12.0038 8.69334 11.7277 8.86648 11.5614L11.7493 8.79291L-0.564303 8.79291C-0.800982 8.79291 -0.992875 8.60102 -0.992875 8.36434V7.36434C-0.992875 7.12766 -0.800982 6.93577 -0.564303 6.93577L11.7493 6.93577L8.86652 4.16727C8.69334 4.00098 8.69055 3.72488 8.86034 3.55513L9.56127 2.8542C9.72862 2.68684 9.99998 2.68684 10.1674 2.8542L14.8745 7.5613C15.0418 7.72866 15.0418 8.00002 14.8745 8.16741L10.1673 12.8745C9.99995 13.0418 9.72859 13.0418 9.56123 12.8745Z" fill="#262E39"/>
</g>
<defs>
<clipPath id="clip0_1_412">
<rect width="16" height="16" fill="white" transform="matrix(-1 0 0 -1 16 16)"/>
</clipPath>
</defs>
</svg>
