<svg width="16" height="16" viewBox="0 0 16 16" fill="none" xmlns="http://www.w3.org/2000/svg">
<g id="Frame">
<path id="Vector" d="M4.888 12.6H9.711C9.4672 13.0243 9.11609 13.377 8.69291 13.6227C8.26973 13.8685 7.78935 13.9986 7.3 14C6.81048 13.9988 6.3299 13.8687 5.90652 13.623C5.48315 13.3773 5.13188 13.0244 4.888 12.6ZM11.5 9.1C11.5 10.26 12.44 11.2 13.6 11.2V11.9H1V11.2C1.55695 11.2 2.0911 10.9788 2.48492 10.5849C2.87875 10.1911 3.1 9.65696 3.1 9.1V5.6C3.1 4.48609 3.5425 3.4178 4.33015 2.63015C5.1178 1.8425 6.18609 1.4 7.3 1.4V6.3H11.5V9.1ZM14.3 4.9H8.643L11.443 1.4H8.7V0H14.357L11.557 3.5H14.3V4.9Z" fill="#464A55"/>
</g>
</svg>
