<svg width="16" height="16" viewBox="0 0 16 16" fill="none" xmlns="http://www.w3.org/2000/svg">
<g id="Frame">
<path id="Vector" d="M13.67 5.329L12.589 6.409C12.5628 6.43521 12.5317 6.45601 12.4974 6.4702C12.4632 6.48439 12.4265 6.49169 12.3895 6.49169C12.3524 6.49169 12.3157 6.48439 12.2815 6.4702C12.2473 6.45601 12.2162 6.43521 12.19 6.409L9.58996 3.808C9.56375 3.78181 9.54295 3.75071 9.52876 3.71648C9.51458 3.68225 9.50727 3.64555 9.50727 3.6085C9.50727 3.57144 9.51458 3.53475 9.52876 3.50052C9.54295 3.46629 9.56375 3.43519 9.58996 3.409L10.67 2.329C10.8814 2.11845 11.1676 2.00023 11.466 2.00023C11.7643 2.00023 12.0506 2.11845 12.262 2.329L13.671 3.737C14.111 4.176 14.11 4.888 13.67 5.329ZM8.65996 4.337L2.50596 10.492L2.00896 13.34C1.99334 13.429 1.99937 13.5205 2.02655 13.6066C2.05372 13.6928 2.10124 13.7712 2.16508 13.8351C2.22893 13.8991 2.30723 13.9467 2.39336 13.974C2.4795 14.0013 2.57094 14.0075 2.65996 13.992L5.50796 13.492L11.663 7.338C11.6892 7.31181 11.71 7.28071 11.7242 7.24648C11.7384 7.21225 11.7457 7.17555 11.7457 7.1385C11.7457 7.10144 11.7384 7.06475 11.7242 7.03052C11.71 6.99629 11.6892 6.96519 11.663 6.939L9.06096 4.337C9.00777 4.28424 8.93589 4.25463 8.86096 4.25463C8.78604 4.25463 8.71416 4.28424 8.66096 4.337H8.65996ZM4.06196 11.937H5.18696V12.787L3.67496 13.052L2.94596 12.322L3.21096 10.812H4.06196V11.936V11.937Z" fill="#464A55"/>
</g>
</svg>
