<svg width="16" height="16" viewBox="0 0 16 16" fill="none" xmlns="http://www.w3.org/2000/svg">
<g id="Frame">
<path id="Vector" fill-rule="evenodd" clip-rule="evenodd" d="M5.43877 3.12552L6.1397 3.82645C6.30945 3.9962 6.30666 4.2723 6.13352 4.43859L3.25073 7.20709H15.5643C15.801 7.20709 15.9929 7.39898 15.9929 7.63566V8.63566C15.9929 8.87234 15.801 9.06423 15.5643 9.06423H3.25073L6.13348 11.8327C6.30666 11.999 6.30945 12.2751 6.13966 12.4449L5.43873 13.1458C5.27138 13.3132 5.00002 13.3132 4.83262 13.1458L0.125518 8.4387C-0.0418393 8.27134 -0.0418393 7.99998 0.125518 7.83259L4.8327 3.12552C5.00005 2.95816 5.27141 2.95816 5.43877 3.12552Z" fill="#262E39"/>
</g>
</svg>
