<svg width="16" height="16" viewBox="0 0 16 16" fill="none" xmlns="http://www.w3.org/2000/svg">
<g id="Frame">
<path id="Vector" d="M13 8C13 8.32 12.743 8.577 12.423 8.577H8.577V12.423C8.577 12.576 8.51621 12.7228 8.408 12.831C8.29979 12.9392 8.15303 13 8 13C7.84697 13 7.70021 12.9392 7.592 12.831C7.48379 12.7228 7.423 12.576 7.423 12.423V8.577H3.577C3.42397 8.577 3.27721 8.51621 3.169 8.408C3.06079 8.29979 3 8.15303 3 8C3 7.84697 3.06079 7.70021 3.169 7.592C3.27721 7.48379 3.42397 7.423 3.577 7.423H7.423V3.577C7.423 3.42397 7.48379 3.27721 7.592 3.169C7.70021 3.06079 7.84697 3 8 3C8.15303 3 8.29979 3.06079 8.408 3.169C8.51621 3.27721 8.577 3.42397 8.577 3.577V7.423H12.423C12.743 7.423 13 7.683 13 8Z" fill="#6C6C6D"/>
</g>
</svg>
