<svg width="16" height="16" viewBox="0 0 16 16" fill="none" xmlns="http://www.w3.org/2000/svg">
<g id="Frame">
<path id="Vector" d="M13.317 3.121L6.01902 10.419L2.68302 7.082C2.6054 7.00451 2.5002 6.96098 2.39052 6.96098C2.28083 6.96098 2.17564 7.00451 2.09802 7.082L1.12102 8.059C1.04352 8.13662 1 8.24182 1 8.3515C1 8.46118 1.04352 8.56638 1.12102 8.644L5.72702 13.25C5.80464 13.3275 5.90983 13.371 6.01952 13.371C6.1292 13.371 6.2344 13.3275 6.31202 13.25L14.879 4.683C14.9565 4.60538 15 4.50018 15 4.3905C15 4.28082 14.9565 4.17562 14.879 4.098L13.902 3.121C13.8244 3.04351 13.7192 2.99998 13.6095 2.99998C13.4998 2.99998 13.3946 3.04351 13.317 3.121V3.121Z" fill="#464A55"/>
</g>
</svg>
